<?xml version="1.0" standalone="no"?>
<!DOCTYPE svg PUBLIC "-//W3C//DTD SVG 20010904//EN"
 "http://www.w3.org/TR/2001/REC-SVG-20010904/DTD/svg10.dtd">
<svg version="1.0" xmlns="http://www.w3.org/2000/svg"
 width="260.000000pt" height="260.000000pt" viewBox="0 0 260.000000 260.000000"
 preserveAspectRatio="xMidYMid meet">
<g transform="translate(0.000000,260.000000) scale(0.100000,-0.100000)"
fill="#000000" stroke="none">
<path d="M650 2276 l0 -326 -323 -2 -324 -3 324 -322 323 -322 0 324 0 325
323 2 323 3 -323 323 -323 323 0 -325z"/>
<path d="M1621 2272 l-314 -317 321 -3 322 -2 2 -323 3 -322 323 323 324 322
-326 0 -326 0 0 320 c0 176 -3 320 -7 319 -5 0 -149 -143 -322 -317z"/>
<path d="M1950 976 l0 -326 -320 0 c-176 0 -320 -2 -320 -4 0 -7 628 -636 635
-636 3 0 5 144 5 320 l0 320 323 2 323 3 -323 323 -323 323 0 -325z"/>
<path d="M317 969 l-318 -319 325 0 326 0 2 -323 3 -324 323 324 323 323 -326
0 -325 0 0 320 c0 176 -3 320 -7 319 -5 -1 -151 -145 -326 -320z"/>
</g>
</svg>
