<svg width="340" height="70" version="1.1" viewBox="0 0 89.958 18.521"
     xmlns="http://www.w3.org/2000/svg">
    <g>
        <path
            d="M9.753 7.935q0-.57-.108-1.124-.099-.562-.289-1.058-.19-.505-.471-.926-.273-.43-.62-.736-.348-.314-.761-.488-.414-.182-.885-.182-.736 0-1.323.314-.578.306-.984.885-.397.57-.611 1.389-.215.818-.215 1.827 0 .926.248 1.753.256.827.678 1.455.43.62 1 .984.57.364 1.207.364.686 0 1.257-.281.579-.29.992-.852.422-.562.653-1.397.232-.835.232-1.927zm2.472 6.169q-.198.363-.405.644-.207.29-.405.488-.199.207-.38.314-.174.108-.298.108-.513 0-1.017-.256-.496-.248-.992-.612-.496-.356-.993-.753-.487-.388-.984-.678-.19.025-.372.025-.91 0-1.678-.421-.769-.422-1.323-1.142-.554-.719-.868-1.686-.306-.968-.306-2.059 0-1.124.364-2.141t.992-1.786q.628-.77 1.472-1.224.851-.455 1.827-.455 1.025 0 1.802.455.778.446 1.307 1.19.529.745.794 1.704.272.959.272 1.968 0 .876-.231 1.695-.232.818-.645 1.513-.413.686-.984 1.215-.562.53-1.224.827.38.198.753.446.38.248.736.463.363.215.702.364.34.15.645.15.1 0 .207-.034.116-.033.256-.108.141-.074.323-.198.182-.124.43-.306zm7.597-8.514q-.422.086-.664.192-.236.105-.236.192v3.913q0 .812-.198 1.45-.199.64-.57 1.08-.373.44-.906.676-.533.23-1.203.23-.639 0-1.178-.18-.534-.174-.924-.534-.385-.366-.602-.918-.217-.552-.217-1.308v-4.41q0-.074-.23-.185-.222-.112-.669-.199v-.266h2.79v.266q-.421.087-.663.193-.236.105-.236.192v4.099q0 .595.137 1.066.142.472.415.8.28.323.682.496.404.174.937.174.44 0 .781-.21.341-.218.57-.565.236-.347.354-.788.124-.446.124-.905V5.974q0-.075-.23-.186-.223-.112-.669-.199v-.266h2.605zm.837 7.546v-.267q.421-.086.657-.186.242-.105.242-.192V5.974q0-.075-.23-.186-.223-.112-.67-.199v-.266h2.791v.266q-.421.087-.663.193-.236.105-.236.192v6.517q0 .075.223.186.23.106.676.192v.267zm9.215-1.513q-.05.54-.13.936-.075.397-.125.577h-5.29v-.267q.422-.086.658-.186.242-.105.242-.192V5.974q0-.075-.23-.186-.223-.112-.67-.199v-.266h2.791v.266q-.421.087-.663.193-.236.105-.236.192v6.145q0 .112.05.199.056.08.186.142.13.056.353.087.223.031.565.031h.886q.286 0 .478-.031.198-.031.347-.136.149-.112.267-.323.124-.21.254-.577zm2.102 1.513v-.267q.285-.055.477-.117.199-.062.317-.118.117-.062.167-.112.056-.056.056-.099V5.881h-1.854q-.093 0-.174.037-.074.031-.155.143-.074.111-.174.328-.099.217-.235.577l-.267-.118q.031-.366.08-.781.056-.416.125-.744h6.263l.186.155q-.012.316-.062.694-.05.372-.124.763h-.28q-.061-.285-.11-.484-.044-.204-.106-.328-.062-.13-.149-.186-.08-.056-.21-.056h-1.762v6.542q0 .08.223.205.223.124.794.242v.266z"
            fill="#b8b8b8" stroke-width=".265"/>
        <path
            d="M41.103 5.292v-3.97l3.968 3.97 3.969-3.97v3.97h3.969L49.04 9.26l3.969 3.97H49.04v3.968l-3.969-3.969-3.968 3.969v-3.969h-3.97l3.97-3.969-3.97-3.968z"
            fill="#c74a21"/>
        <path d="m41.103 5.292h7.938v7.938h-7.938z" fill="#ceb12c"/>
        <g fill="#b8b8b8" stroke-width=".265">
            <path
                d="M56.701 3.205q-.413 0-.81.025v8.673q0 .182.082.298.116.14.447.215.33.066.975.066.571 0 1.175-.273.611-.281 1.116-.844.504-.57.827-1.43.322-.86.322-2.026 0-1.1-.273-1.967-.273-.877-.802-1.48-.52-.612-1.298-.935-.769-.322-1.761-.322zm5.54 4.382q0 1.033-.215 1.852-.207.81-.563 1.439-.355.62-.826 1.058-.463.43-.984.711-.521.273-1.059.405-.529.124-1.017.124H53.37v-.355q.562-.116.876-.248.323-.14.323-.257V3.354q-.331.04-.629.082-.297.042-.57.083l-.075-.513q.364-.099.836-.19.48-.09 1.008-.157.53-.074 1.067-.107.546-.042 1.033-.042 1.15 0 2.076.348.926.339 1.57.992.654.653 1.001 1.596.356.942.356 2.141zM62.826 13.176v-.266q.421-.087.657-.186.242-.106.242-.193V5.803q-.217.031-.447.068l-.452.062-.056-.384q.291-.075.589-.137.298-.068.62-.117.323-.056.676-.087.36-.031.769-.031.72 0 1.253.142.533.143.886.397.354.255.527.602.174.34.174.738 0 .446-.13.812-.124.36-.36.639-.23.279-.552.477-.322.199-.707.317l1.88 3.013q.092.137.198.217.111.08.242.124.136.038.297.044.168 0 .379-.019l.068.267q-.41.136-.782.23-.365.086-.607.086-.18 0-.354-.1-.167-.098-.254-.241l-1.879-3.479q-.08.013-.161.013h-.168q-.16 0-.322-.013-.161-.018-.335-.056v3.144q0 .075.223.186.223.106.676.193v.266zm2.369-7.478q-.236 0-.478.018v3.175q.167.031.291.037.124.006.26.006.98 0 1.508-.427.527-.435.527-1.26 0-.34-.124-.626-.118-.285-.378-.49-.255-.204-.658-.316-.397-.118-.948-.118zm9.14 4.161L73.244 6.67l-1.06 3.188zm-2.338.558l-.688 2.07q-.062.193.167.28.23.087.738.143v.266h-2.58v-.266q.422-.075.67-.155.248-.081.31-.267l2.307-6.983q.143-.155.354-.279.21-.13.372-.217l2.604 7.479q.031.087.087.155.056.068.149.118.093.05.235.087.143.037.342.062v.266h-2.617v-.266q.483-.031.67-.124.185-.093.117-.298l-.707-2.071zM87.754 5.63q-.272.055-.452.105-.18.05-.286.1-.105.042-.155.086-.043.043-.05.093l-1.42 6.796q-.03.13-.136.23-.099.093-.23.155-.13.068-.266.105-.136.044-.23.062l-2.02-6.04-1.78 5.488q-.044.13-.15.224-.105.093-.241.155-.13.068-.28.105-.142.043-.266.068L78.18 6.063q-.031-.155-.223-.254-.193-.099-.633-.18v-.266h2.66v.266q-.304.031-.477.081-.174.043-.26.1-.087.055-.106.123-.012.062 0 .13l1.234 5.563 2.01-6.263h.34l2.195 6.263 1.16-5.612q.012-.075-.056-.13-.068-.056-.198-.1-.13-.043-.31-.08-.18-.037-.39-.075v-.266h2.628z"
                fill="#b8b8b8"/>
        </g>
    </g>
</svg>
